<svg width="47" height="40" viewBox="0 0 47 40" fill="none" xmlns="http://www.w3.org/2000/svg">
<g clip-path="url(#clip0_22_1332)">
<mask id="mask0_22_1332" style="mask-type:luminance" maskUnits="userSpaceOnUse" x="0" y="0" width="47" height="40">
<path d="M47 0H0V40H47V0Z" fill="white"/>
</mask>
<g mask="url(#mask0_22_1332)">
<path d="M0 5.13343C0 2.31064 2.16837 0 4.84319 0H9.09677C14.1208 0 18.1935 4.29806 18.1935 9.6V35.4666C18.1935 37.9704 16.2703 40 13.8978 40C11.5254 40 9.60217 37.9704 9.60217 35.4666V15.2889C9.60217 12.4906 7.45264 10.2222 4.80107 10.2222C2.14951 10.2222 0 7.93167 0 5.13343Z" fill="#1E90FF"/>
<path d="M43.2097 14.3999C45.303 14.3999 47 12.609 47 10.3999C47 8.19076 45.303 6.3999 43.2097 6.3999C41.1164 6.3999 39.4194 8.19076 39.4194 10.3999C39.4194 12.609 41.1164 14.3999 43.2097 14.3999Z" fill="#1E90FF"/>
<path d="M43.2097 40C45.303 40 47 38.2091 47 36C47 33.7909 45.303 32 43.2097 32C41.1164 32 39.4194 33.7909 39.4194 36C39.4194 38.2091 41.1164 40 43.2097 40Z" fill="#1E90FF"/>
<path d="M21.2258 8C21.2258 3.58172 24.6198 0 28.8065 0V25.6C24.6198 25.6 21.2258 22.0182 21.2258 17.6V8Z" fill="#1E90FF"/>
<path d="M30.3226 14.3999C30.3226 9.98166 33.7166 6.3999 37.9032 6.3999V31.9999C37.9032 36.4181 34.5092 39.9999 30.3226 39.9999V14.3999Z" fill="#1E90FF"/>
<path d="M47 21.2C47 22.3031 46.8039 23.3954 46.423 24.4145C46.042 25.4336 45.4837 26.3596 44.7797 27.1396C44.0758 27.9196 43.2401 28.5384 42.3203 28.9605C41.4007 29.3827 40.4149 29.6 39.4194 29.6V21.2H47Z" fill="#1E90FF"/>
</g>
</g>
<defs>
<clipPath id="clip0_22_1332">
<rect width="47" height="40" fill="white"/>
</clipPath>
</defs>
</svg>
